<?xml version="1.0" encoding="UTF-8"?>
<svg xmlns="http://www.w3.org/2000/svg" id="Layer_1" data-name="Layer 1" viewBox="0 0 24 24">
  <path d="M18,12c0-3.309-2.691-6-6-6s-6,2.691-6,6,2.691,6,6,6,6-2.691,6-6Zm-1.051-.5h-2.47c-.051-1.606-.352-3.168-.887-4.216,1.82,.617,3.157,2.242,3.357,4.216Zm-4.949,5.5c-.558,0-1.376-1.782-1.47-4.5h2.94c-.094,2.718-.912,4.5-1.47,4.5Zm-1.47-5.5c.094-2.718,.912-4.5,1.47-4.5s1.376,1.782,1.47,4.5h-2.94Zm-.123-4.216c-.535,1.048-.835,2.61-.887,4.216h-2.47c.2-1.974,1.537-3.599,3.357-4.216Zm-3.357,5.216h2.47c.051,1.606,.352,3.168,.887,4.216-1.82-.617-3.157-2.242-3.357-4.216Zm6.542,4.216c.535-1.048,.835-2.61,.887-4.216h2.47c-.2,1.974-1.537,3.599-3.357,4.216ZM0,6.5c0-.276,.224-.5,.5-.5H3.386c.192-.413,.556-1.073,1.145-1.661,.548-.548,1.094-.836,1.469-.987V.5c0-.276,.224-.5,.5-.5s.5,.224,.5,.5V3.421l1.354,1.354c.195,.195,.195,.512,0,.707s-.512,.195-.707,0l-1.224-1.224c-.265,.101-.722,.326-1.184,.788-.496,.496-.804,1.068-.957,1.4l1.2,1.2c.195,.195,.195,.512,0,.707s-.512,.195-.707,0l-1.354-1.354H.5c-.276,0-.5-.224-.5-.5Zm2.25-2c1.241,0,2.25-1.009,2.25-2.25S3.491,0,2.25,0,0,1.009,0,2.25s1.009,2.25,2.25,2.25Zm0-3.5c.689,0,1.25,.561,1.25,1.25s-.561,1.25-1.25,1.25-1.25-.561-1.25-1.25,.561-1.25,1.25-1.25ZM24,6.5c0,.276-.224,.5-.5,.5h-2.921l-1.354,1.354c-.195,.195-.512,.195-.707,0s-.195-.512,0-.707l1.224-1.224c-.101-.265-.326-.722-.788-1.184-.496-.496-1.068-.804-1.4-.957l-1.2,1.2c-.195,.195-.512,.195-.707,0s-.195-.512,0-.707l1.354-1.354V.5c0-.276,.224-.5,.5-.5s.5,.224,.5,.5V3.386c.413,.192,1.073,.556,1.661,1.145,.548,.548,.836,1.094,.987,1.469h2.852c.276,0,.5,.224,.5,.5Zm-2.25-2c1.241,0,2.25-1.009,2.25-2.25s-1.009-2.25-2.25-2.25-2.25,1.009-2.25,2.25,1.009,2.25,2.25,2.25Zm0-3.5c.689,0,1.25,.561,1.25,1.25s-.561,1.25-1.25,1.25-1.25-.561-1.25-1.25,.561-1.25,1.25-1.25Zm2.25,16.5c0,.276-.224,.5-.5,.5h-2.886c-.192,.413-.556,1.073-1.145,1.661-.548,.548-1.094,.836-1.469,.987v2.852c0,.276-.224,.5-.5,.5s-.5-.224-.5-.5v-2.921l-1.354-1.354c-.195-.195-.195-.512,0-.707s.512-.195,.707,0l1.224,1.224c.265-.101,.722-.326,1.184-.788,.496-.496,.804-1.068,.957-1.4l-1.2-1.2c-.195-.195-.195-.512,0-.707s.512-.195,.707,0l1.354,1.354h2.921c.276,0,.5,.224,.5,.5Zm-2.25,2c-1.241,0-2.25,1.009-2.25,2.25s1.009,2.25,2.25,2.25,2.25-1.009,2.25-2.25-1.009-2.25-2.25-2.25Zm0,3.5c-.689,0-1.25-.561-1.25-1.25s.561-1.25,1.25-1.25,1.25,.561,1.25,1.25-.561,1.25-1.25,1.25ZM2.25,19.5c-1.241,0-2.25,1.009-2.25,2.25s1.009,2.25,2.25,2.25,2.25-1.009,2.25-2.25-1.009-2.25-2.25-2.25Zm0,3.5c-.689,0-1.25-.561-1.25-1.25s.561-1.25,1.25-1.25,1.25,.561,1.25,1.25-.561,1.25-1.25,1.25Zm6.104-4.482c.195,.195,.195,.512,0,.707l-1.354,1.354v2.921c0,.276-.224,.5-.5,.5s-.5-.224-.5-.5v-2.886c-.413-.192-1.073-.556-1.661-1.145-.548-.548-.836-1.094-.987-1.469H.5c-.276,0-.5-.224-.5-.5s.224-.5,.5-.5H3.421l1.354-1.354c.195-.195,.512-.195,.707,0s.195,.512,0,.707l-1.224,1.224c.101,.265,.326,.722,.788,1.184,.496,.496,1.068,.804,1.4,.957l1.2-1.2c.195-.195,.512-.195,.707,0Z"/>
</svg>
