<svg id="Layer_1" viewBox="0 0 24 24" xmlns="http://www.w3.org/2000/svg" data-name="Layer 1"><path d="m22.287 11.365-3-.995c-.507-.168-1.068-.168-1.574 0l-3 .995c-1.025.34-1.713 1.293-1.713 2.373v3.675c0 3.614 3.869 5.83 5.054 6.422.267.189.584.202.866.035 1.192-.48 5.08-2.363 5.08-6.458v-3.675c0-1.08-.688-2.033-1.713-2.373zm.713 6.048c0 3.467-3.409 5.109-4.453 5.53l-.023.009-.022-.011c-1.056-.528-4.501-2.487-4.501-5.528v-3.675c0-.647.413-1.22 1.028-1.424l3-.995c.304-.102.639-.102.944 0l3 .995c.615.204 1.028.776 1.028 1.424v3.675zm-9.564 5.494c-.41.053-.827.073-1.243.08-.563-.566-2.716-2.86-4.07-5.988h2.377c.276 0 .5-.224.5-.5s-.224-.5-.5-.5h-2.768c-.439-1.247-.732-2.593-.732-4s.292-2.753.732-4h8.883c.007 0 .012.006.019.006.011 0 .021-.005.032-.006h5.576c.144.368.275.742.38 1.13.072.267.349.425.613.353.267-.072.425-.346.353-.613-1.408-5.222-6.173-8.869-11.588-8.869-.005 0-.009 0-.014 0-.002 0-.003 0-.005 0-6.608.011-11.981 5.39-11.981 12s5.383 12 12 12c.522 0 1.049-.034 1.564-.102.274-.036.467-.287.431-.56-.036-.274-.286-.47-.56-.431zm-5.313-15.907c1.229-2.839 3.117-4.991 3.878-5.789.769.804 2.667 2.96 3.889 5.789zm13.669 0h-4.823c-1.07-2.668-2.711-4.777-3.726-5.921 3.677.419 6.885 2.667 8.549 5.921zm-11.032-5.925c-1.019 1.144-2.664 3.257-3.731 5.925h-4.815c1.645-3.206 4.812-5.504 8.546-5.925zm-8.996 6.925h4.905c-.404 1.248-.669 2.589-.669 4s.265 2.752.669 4h-4.905c-.487-1.242-.764-2.588-.764-4s.277-2.758.764-4zm.45 9h4.815c1.067 2.669 2.712 4.781 3.731 5.925-3.734-.421-6.901-2.719-8.546-5.925z"/></svg>