<?xml version="1.0" encoding="UTF-8"?>
<svg xmlns="http://www.w3.org/2000/svg" id="Layer_1" data-name="Layer 1" viewBox="0 0 24 24">
  <path d="M17.5,5c1.378,0,2.5-1.121,2.5-2.5s-1.122-2.5-2.5-2.5-2.5,1.121-2.5,2.5,1.122,2.5,2.5,2.5Zm0-4c.827,0,1.5,.673,1.5,1.5s-.673,1.5-1.5,1.5-1.5-.673-1.5-1.5,.673-1.5,1.5-1.5Zm6.447,22.276l-2.192-4.385c-.248-.496-.661-.9-1.161-1.139l-1.774-.845,.729-5.089,3.702,2.115c.078,.044,.164,.065,.248,.065,.174,0,.342-.091,.435-.252,.137-.24,.054-.545-.186-.683l-4.046-2.312,.275-1.916c.098-.715-.119-1.438-.594-1.981-.475-.544-1.161-.856-1.883-.856-.833,0-1.616,.299-2.239,.822-.06,.039-5.209,6.365-5.209,6.365-.173,.216-.139,.53,.077,.703,.216,.174,.53,.14,.703-.076l3.902-4.861-.698,4.098c-.213,1.506,.337,2.721,1.586,3.439l4.543,2.165c.3,.144,.547,.386,.696,.684l2.192,4.385c.088,.175,.264,.276,.448,.276,.075,0,.151-.017,.223-.053,.247-.124,.347-.424,.224-.671Zm-7.861-7.671c-.861-.496-1.218-1.309-1.063-2.4l.97-5.695c.43-.326,.954-.51,1.507-.51,.433,0,.845,.188,1.13,.514,.285,.326,.415,.76,.356,1.186l-1.112,7.758-1.788-.852Zm-8.153-2.06l-.523-.396c-1.204-.827-2.563-.995-3.933,.511l-2.913,3.724c-.919,1.215-.688,2.964,.517,3.899l2.185,1.693c.344,.608,.988,1.024,1.735,1.024,1.103,0,2-.897,2-2,0-.693-.355-1.304-.892-1.663l2.325-2.99c.922-1.185,.697-2.895-.501-3.802Zm-2.933,9.455c-.551,0-1-.448-1-1s.449-1,1-1,1,.448,1,1-.449,1-1,1Zm2.654-6.268l-2.557,3.278c-.033-.002-.063-.01-.096-.01-.941,0-1.726,.655-1.938,1.531l-1.368-1.037c-.774-.601-.924-1.725-.343-2.493l2.923-3.736c.781-1.084,1.855-.764,2.523-.324l.539,.404c.756,.567,.9,1.643,.318,2.388Zm7.253,1.35l-.914,5.5c-.041,.244-.224,.418-.575,.411-.272-.045-.457-.303-.411-.575l.914-5.5c.045-.271,.3-.459,.575-.411,.272,.045,.457,.303,.411,.575Z"/>
</svg>
